<svg xmlns="http://www.w3.org/2000/svg" height="48" viewBox="0 96 960 960" width="48"><path d="M190 957q-37.175 0-64.088-26.912Q99 903.175 99 866V286q0-37.588 26.912-64.794Q152.825 194 190 194h580q37.588 0 64.794 27.206Q862 248.412 862 286v580q0 37.175-27.206 64.088Q807.588 957 770 957H190Zm0-91h580V286H190v580Zm226.7-134q8.845 0 17.423-3.5Q442.7 725 449 718l236-235q12-12.209 12-30.405 0-18.195-12.119-32.23Q671.661 409 653.83 409 636 409 623 421L417 628l-79-80q-13.163-13-31.081-12.5-17.919.5-30.354 12.935Q264 560.778 264 579.389T277 609l109 109q4.9 7.091 13.377 10.545Q407.855 732 416.7 732ZM190 866V286v580Z"/></svg>