<svg xmlns="http://www.w3.org/2000/svg" height="48" viewBox="0 96 960 960" width="48">
    <path d="M360 750q-13-15-13.5-33.25T360 685l63-63H134q-19.775 0-32.387-13.36Q89 595.281 89 576.14q0-20.14 12.613-32.64Q114.225 531 134 531h287l-64-67q-14-12.133-13.5-30.014t14.714-31.933Q370.661 390 389.705 390.5 408.75 391 424 403l142 142q5 6.16 9 14.813 4 8.654 4 17.4 0 8.747-4 17.267T566 608L424 751q-14 12-32 11.5T360 750Zm168 209q-19.775 0-32.388-13.36Q483 932.281 483 913.14q0-20.14 12.612-32.64Q508.225 868 528 868h253V284H528q-19.775 0-32.388-12.86Q483 258.281 483 238.14q0-19.14 12.612-32.64Q508.225 192 528 192h253q36 0 63.5 27.5T872 284v584q0 37-27.5 64T781 959H528Z"/>
</svg>
