<svg xmlns="http://www.w3.org/2000/svg" xml:space="preserve" viewBox="0 0 512 512"><path fill="#252525" d="M513 312c0 33.02 0 66.042-.26 99.828-2.788 10.862-4.415 21.294-8.023 30.988-8.493 22.823-28.627 38.463-55.408 38.374-127.741-.42-255.485-.253-383.228-.084-12.168.016-23.417-2.307-33.827-8.495-9.753-5.796-18.322-12.918-23.17-23.478C6.072 442.568 3.675 435.72 1 429c0-86.354 0-172.708.26-259.822 2.903-11.333 4.327-22.415 8.47-32.365 6.42-15.424 15.672-29.37 27.896-41.143 1.793-1.727 3.138-4.783 3.22-7.272.351-10.653.149-21.325.152-31.99C41.003 37.909 53.812 25 72.184 25c59.155-.004 118.31-.003 177.466 0 18.473 0 31.345 12.832 31.352 31.243.004 10.664-.112 21.331.097 31.992.041 2.13.8 4.638 2.106 6.272 3.412 4.274 7.856 7.79 10.895 12.282 5.719 8.451 11.287 17.097 15.914 26.173 6.068 11.904 9.371 24.821 10.446 38.168.403 5.008 2.683 5.989 7.31 5.97 42.659-.17 85.317-.108 127.976-.091 7.302.002 9.23 1.899 9.245 9.08.032 15.33-.082 30.662.127 45.99.027 2 1.106 4.497 2.547 5.88 6.774 6.504 14.339 12.241 20.69 19.112 9.432 10.203 16.085 22.24 19.78 35.742 1.741 6.363 3.25 12.79 4.865 19.188M241.96 464.96c63.85.013 127.7.03 191.55.033 5.152 0 10.304-.1 16.328-.051 15.927-.316 28.68-6.813 35.963-21.077 4.242-8.307 8.34-17.613 8.91-26.696 1.69-26.862 1.569-53.837 2.225-80.767.076-3.148-1.683-3.431-4.121-3.42-10.488.052-20.976.007-31.464.04-1.276.004-2.552.265-4.351.465v6.127c0 24.97.011 49.941-.01 74.912-.006 6.851-1.545 8.828-8.741 10.46-5.596-1.167-7.309-4.9-7.29-10.25.092-27.49-.066-54.983.142-82.473.037-4.87-1.478-8.666-4.447-12.26-9.571-11.588-22.07-18.796-36.141-23.046-36.5-11.025-73.244-10.96-109.798-.391-14.752 4.266-27.918 11.728-37.81 24.014-2.7 3.354-4.037 6.903-4.005 11.41.198 27.657.114 55.316.087 82.975-.006 6.403-1.61 8.374-8.683 10.032-5.6-1.142-7.359-4.868-7.34-10.216.086-25.152.043-50.304.025-75.457-.001-1.937-.16-3.875-.269-6.323-11.936 0-23.395.131-34.848-.075-3.694-.067-4.9 1.037-4.87 4.793.158 20.653-.253 41.316.197 61.961.34 15.578 2.647 30.956 10.955 44.614 8.345 13.718 20.523 20.993 37.807 20.666m-64.937-115.071c.899-16.29 1.798-32.578 2.951-49.607 6.552-25.714 20.487-46.32 42.316-61.568 1.348-.942 2.58-3.121 2.593-4.736.137-16.322.008-32.646.117-49.692 1.09-5.297 4.503-7.33 9.72-7.313 21.16.068 42.32.027 63.48.026h5.936c0-1.677.07-2.506-.01-3.32-2.583-26.265-13.507-48.523-32.466-66.784-1.41-1.359-4.189-1.816-6.333-1.819-69.478-.091-138.957-.054-208.435-.14-3.432-.005-5.943.933-8.35 3.392-14.084 14.392-23.657 31.285-28.333 50.856-1.335 5.588-1.92 11.355-2.977 17.816h7.335c57.982 0 115.964-.005 173.947.007 6.898.001 8.857 1.517 10.457 8.718-2.035 6.094-3.723 7.269-10.687 7.27-58.457.007-116.913.004-175.37.004H17.38V384.61h159.504c0-11.54 0-22.69.14-34.721M310.5 248.999c-23.492 0-46.985-.072-70.475.101-2.64.02-5.71.803-7.837 2.294-20.615 14.456-33.169 34.22-37.875 58.934-.38 2.002-.05 4.14-.05 6.64 13.531 0 26.666.06 39.797-.1 1.189-.015 2.736-1.186 3.482-2.261 11.44-16.483 27.644-26.4 46.189-32.491 34.859-11.451 70.429-11.736 106.103-4.608 20.574 4.11 40.658 11.294 54.125 27.79 8.704 10.663 17.85 12.733 29.87 11.805 7.236-.558 14.551-.102 21.933-.102 0-2.197.211-3.708-.031-5.143-4.223-25.007-16.38-45.178-37.143-59.864-2.5-1.768-6.061-2.859-9.136-2.87-45.984-.18-91.968-.125-138.952-.125M82.5 89h182.499c0-10.2.007-19.521-.002-28.842-.012-13.246-5.944-19.153-19.257-19.154-56.494-.005-112.988-.002-169.481 0-1.5 0-3.007-.056-4.497.068-7.237.604-13.93 5.919-14.348 13.092-.663 11.399-.177 22.865-.177 34.836H82.5m66 376h51.191c-15.85-19.13-21.954-40.518-22.755-63.713H17.001c0 4.723-.01 9.176.001 13.629.075 29.405 20.64 50.028 50.008 50.075 26.83.042 53.66.009 81.49.009m164-232.001h136.157v-39.596H241.343v39.596H312.5z"/><path fill="#FECB3E" d="M224.838 185.008c.054 16.324.183 32.648.046 48.97-.013 1.615-1.245 3.794-2.593 4.736-21.829 15.247-35.764 35.854-42.73 61.784a24.238 24.238 0 0 1-6.496-2.843c-.093-4.621-2.76-6.842-6.105-8.812-13.301-7.832-22.499-19.106-27.415-33.737-2.376-7.068-3.629-14.346-2.944-22.113 5.664 0 10.82.115 15.97-.032 5.059-.145 8.439-3.512 8.396-8.031-.042-4.519-3.425-7.773-8.524-7.9-5.329-.13-10.691.314-15.988-.116-7.83-.634-14.758 1.718-21.445 5.318-25.014 13.467-37.9 35.54-43.995 62.333-.753 3.307-1.764 5.311-5.441 6.454-19.55 6.077-29.836 27.14-23.018 46.436 6.785 19.205 28.063 28.993 47.173 21.7 18.848-7.193 28.165-28.493 20.619-47.25-4.455-11.071-12.759-18-23.863-21.624 1.214-19.263 19.498-46.952 33.974-51.669 3.686 26.541 5.423 30.317 25.608 55.49-1.271 1.004-2.562 1.987-3.814 3.02-19.119 15.76-17.202 45.352 3.78 58.436 6.613 4.124 10.235 3.47 15.32-2.646 5.481-.69 10.506-1.416 15.53-2.142v33.84H17.379V193h5.536c58.457 0 116.913.003 175.37-.004 6.964-.001 8.652-1.176 11.23-7.631 5.47-.36 10.396-.358 15.323-.356M48.999 244.5c-.004-6.165.083-12.331-.04-18.494-.112-5.621-3.173-8.929-7.96-8.929-4.786 0-7.906 3.309-7.952 8.93a2313.856 2313.856 0 0 0 0 37.987c.046 5.62 3.166 8.929 7.953 8.929 4.787 0 7.847-3.308 7.96-8.93.122-6.162.035-12.328.039-19.493z"/><path fill="#8CBF43" d="M241.033 425.152c6.343-1.813 7.948-3.784 7.954-10.187.027-27.659.11-55.318-.087-82.975-.032-4.507 1.304-8.056 4.005-11.41 9.892-12.286 23.058-19.748 37.81-24.014 36.554-10.57 73.298-10.634 109.798.39 14.07 4.251 26.57 11.459 36.141 23.047 2.969 3.594 4.484 7.39 4.447 12.26-.208 27.49-.05 54.982-.143 82.474-.018 5.35 1.695 9.082 7.658 10.791.36 13.464.355 26.387.35 39.31-5.152.054-10.304.155-15.456.155-63.85-.002-127.7-.02-192.02-.551-.467-13.442-.462-26.366-.457-39.29m63.864-106.597c-3.725-5.497-7.739-6.964-11.988-4.382-4.434 2.695-5.283 7.73-1.405 13.032 3.098 4.236 7.037 7.858 10.86 12.033-8.157 7.716-13.177 17.577-13.335 29.544-.113 8.497-.164 17 .024 25.495.627 28.36 22.28 51.564 50.74 54.525 27.096 2.818 53.682-15.151 59.032-42.35 2.778-14.121 1.785-29.121 1.353-43.69-.286-9.654-6.124-17.372-12.289-23.37 4.098-4.861 8.299-9.136 11.627-14.006 2.888-4.226 1.46-8.932-2.441-11.275-3.912-2.35-8.158-1.136-11.167 3.191-6.836 9.832-20.87 14.473-32.905 10.716 0-4.243.026-8.568-.006-12.893-.048-6.337-2.952-10.019-7.897-10.086-4.973-.068-8.041 3.644-8.095 9.878-.04 4.59-.008 9.18-.008 13.985-12.222.185-23.67.738-32.1-10.347z"/><path fill="#D74C4C" d="M224.92 184.647c-5.01.36-9.936.357-15.32.358-2.228-6.48-4.187-7.997-11.085-7.998C140.532 176.995 82.55 177 24.568 177h-7.335c1.056-6.461 1.642-12.228 2.977-17.816 4.676-19.57 14.25-36.464 28.333-50.856 2.407-2.46 4.918-3.397 8.35-3.392 69.478.086 138.957.049 208.435.14 2.144.003 4.923.46 6.333 1.82 18.959 18.26 29.883 40.518 32.466 66.782.08.815.01 1.644.01 3.321h-5.935c-21.16.001-42.32.042-63.48-.026-5.218-.017-8.631 2.016-9.803 7.674m-63.651-45.716c1.474 4.42 4.666 6.108 9.177 6.093 17.79-.057 35.582.016 53.373-.048 5.507-.02 9.02-3.155 9.13-7.795.117-4.83-3.497-8.14-9.258-8.16a7551.21 7551.21 0 0 0-53.373.002c-6.259.023-8.807 2.684-9.05 9.908m-69.353 3.66c5.346-5.22 6.456-10.37 3.344-15.526-2.846-4.717-8.244-6.978-13.265-5.557-6.704 1.899-10.478 8.902-8.226 15.266 2.582 7.297 9.723 9.847 18.147 5.817m-28.107 6.318c-2.84-3.958-6.538-5.051-10.805-2.694-3.431 1.895-4.602 5.125-3.626 8.919 1.088 4.23 5.53 6.687 9.697 5.538 4.696-1.294 6.553-5.338 4.734-11.763m201.16-12.304c-.41-3.914-2.53-6.97-6.326-7.2-2.582-.155-6.353 1.034-7.656 2.943-1.436 2.104-1.775 6.376-.531 8.493 1.253 2.132 5.036 3.822 7.713 3.825 4 .005 6.338-3.14 6.8-8.06z"/><path fill="#7A54A2" d="M311 249c46.484 0 92.468-.056 138.452.123 3.075.012 6.636 1.103 9.136 2.871 20.763 14.686 32.92 34.857 37.143 59.864.242 1.435.031 2.946.031 5.143-7.382 0-14.697-.456-21.933.102-12.02.928-21.166-1.142-29.87-11.804-13.467-16.497-33.551-23.681-54.125-27.791-35.674-7.128-71.244-6.843-106.103 4.608-18.545 6.092-34.75 16.008-46.189 32.49-.746 1.076-2.293 2.247-3.482 2.262-13.131.16-26.266.1-39.797.1 0-2.5-.33-4.638.05-6.64 4.706-24.715 17.26-44.478 37.875-58.934 2.127-1.49 5.197-2.274 7.837-2.294 23.49-.173 46.983-.1 70.975-.1m132.448 34.88c5.168 5.248 10.004 6.413 15.047 3.624 4.752-2.628 7.369-8.072 6.082-13.02-1.227-4.717-4.28-7.834-9.003-9.034-4.883-1.242-8.822.632-11.86 4.411-3.41 4.245-3.436 8.787-.266 14.018m-200.86-15.648c-2.388 3.918-2.471 8.144 1.347 10.598 2.315 1.489 6.787 1.963 8.96.666 2.156-1.286 3.858-5.473 3.619-8.2-.548-6.244-7.51-7.912-13.927-3.064z"/><path fill="#B18264" d="M82 89H57.237c0-11.972-.486-23.438.177-34.837.417-7.173 7.11-12.488 14.348-13.092 1.49-.124 2.997-.068 4.497-.068 56.493-.002 112.987-.005 169.48 0 13.314.001 19.246 5.908 19.258 19.154.009 9.32.002 18.642.002 28.842H82m164.56-21.108c3.197-4.635 3.316-9.349-.104-13.831-3.056-4.005-7.148-5.875-12.264-4.579-4.86 1.231-8.697 5.802-9.087 10.695-.371 4.65 2.622 9.592 7.056 11.649 4.811 2.232 9.111 1.19 14.4-3.934z"/><path fill="#D74C4C" d="M148 465c-27.33 0-54.16.033-80.99-.01-29.369-.046-49.933-20.669-50.008-50.074-.011-4.453-.001-8.906-.001-13.629h159.935c.8 23.195 6.905 44.584 22.755 63.713H148m-29.934-35.464c-5.044-4.788-9.92-5.748-14.794-2.915-4.72 2.745-7.207 8.21-5.795 13.152 1.398 4.893 4.684 8.02 9.685 8.951 4.935.918 8.836-1.237 11.6-5.17 3.102-4.418 2.895-9.01-.696-14.018m22.39-8.546c-6.302 6.284-3.188 15.77 4.048 18.95 5.36 2.356 11.456.262 14.7-4.936 3.019-4.837 2.022-10.748-2.504-14.844-4.663-4.22-10.036-4.12-16.244.83z"/><path fill="#B18264" d="M312 232.999h-70.657v-39.596h207.314v39.596H312z"/><path fill="#68AA22" d="M240.668 425.075c.36 13.001.355 25.925.359 39.307-16.35.905-28.528-6.37-36.873-20.088-8.308-13.658-10.615-29.036-10.955-44.614-.45-20.645-.039-41.308-.198-61.96-.029-3.757 1.177-4.86 4.871-4.794 11.453.206 22.912.075 34.848.075.109 2.448.268 4.386.27 6.323.017 25.153.06 50.305-.026 75.457-.019 5.348 1.74 9.074 7.704 10.294zm208.734 39.815c-.43-12.975-.425-25.898-.427-39.28 6.47-2.256 8.01-4.233 8.015-11.084.021-24.97.01-49.941.01-74.912v-6.127c1.799-.2 3.075-.46 4.351-.465 10.488-.033 20.976.012 31.464-.04 2.438-.011 4.197.272 4.12 3.42-.655 26.93-.535 53.905-2.224 80.767-.57 9.083-4.668 18.389-8.91 26.696-7.282 14.264-20.036 20.761-36.4 21.025z"/><path fill="#D54C4C" d="M173.121 298.041c2.009.891 4.018 1.782 6.313 2.827-.612 16.443-1.511 32.732-2.48 49.461a89.643 89.643 0 0 1-15.606 2.182c.252-5.597-2.822-8.214-6.786-10.641-7.557-4.627-10.994-13.23-8.998-21.468 2.14-8.835 8.922-14.861 17.985-15.299 5.03-.243 8.135-2.328 9.572-7.062z"/><path fill="#282725" d="M173.065 297.655c-1.381 5.12-4.485 7.205-9.516 7.448-9.063.438-15.845 6.464-17.985 15.3-1.996 8.238 1.44 16.84 8.998 21.467 3.964 2.427 7.038 5.044 6.329 10.604-4.623 6.554-8.245 7.208-14.858 3.084-20.982-13.084-22.899-42.675-3.78-58.437 1.252-1.032 2.543-2.015 3.814-3.02-20.185-25.172-21.922-28.948-25.608-55.489-14.476 4.717-32.76 32.406-33.974 51.67 11.104 3.622 19.408 10.552 23.863 21.624 7.546 18.756-1.77 40.056-20.619 47.248-19.11 7.294-40.388-2.494-47.173-21.699-6.818-19.297 3.468-40.359 23.018-46.436 3.677-1.143 4.688-3.147 5.44-6.454 6.095-26.792 18.982-48.866 43.996-62.333 6.687-3.6 13.615-5.952 21.445-5.318 5.297.43 10.66-.015 15.988.117 5.099.126 8.482 3.38 8.524 7.899.043 4.519-3.337 7.886-8.396 8.03-5.15.148-10.306.033-15.97.033-.685 7.767.568 15.045 2.944 22.113 4.916 14.631 14.114 25.905 27.415 33.737 3.345 1.97 6.012 4.191 6.105 8.812M96.98 325.402c-.211-8.832-4.203-15.323-12.356-18.78-7.795-3.305-15.139-1.828-21.24 3.894-6.11 5.73-7.874 12.936-5.232 20.974 2.82 8.58 11.548 14.205 20.53 13.418 9.787-.857 16.528-7.744 18.298-19.506z"/><path fill="#F7A539" d="M48.999 245c-.004 6.665.083 12.831-.04 18.993-.112 5.622-3.172 8.93-7.959 8.93-4.787 0-7.907-3.308-7.953-8.93a2313.856 2313.856 0 0 1 0-37.987c.046-5.62 3.166-8.929 7.953-8.929 4.786 0 7.847 3.308 7.96 8.93.122 6.162.035 12.328.039 18.993z"/><path fill="#262726" d="M305.075 318.869c8.251 10.771 19.7 10.218 31.922 10.033 0-4.806-.031-9.396.008-13.985.054-6.234 3.122-9.946 8.095-9.878 4.945.067 7.849 3.749 7.897 10.086.032 4.325.006 8.65.006 12.893 12.035 3.757 26.069-.884 32.905-10.716 3.01-4.327 7.255-5.54 11.167-3.19 3.9 2.342 5.33 7.048 2.441 11.274-3.328 4.87-7.529 9.145-11.627 14.005 6.165 6 12.003 13.717 12.29 23.37.431 14.57 1.424 29.57-1.354 43.692-5.35 27.198-31.936 45.167-59.031 42.349-28.462-2.961-50.114-26.165-50.741-54.525-.188-8.495-.137-16.998-.024-25.495.158-11.967 5.178-21.828 13.334-29.544-3.822-4.175-7.76-7.797-10.859-12.033-3.878-5.303-3.03-10.337 1.405-13.032 4.25-2.582 8.263-1.115 12.166 4.696m77.71 87.202c3.824-13.752 2.866-27.823 1.488-41.637-1.15-11.52-11.485-19.239-23.197-19.395a1223.27 1223.27 0 0 0-31.956-.004c-13.7.176-23.894 10.425-24.093 24.129-.109 7.488-.05 14.98-.018 22.47.086 20.324 12.984 36.704 31.825 40.456 19.737 3.93 37.645-5.99 45.95-26.019z"/><path fill="#272525" d="M161.19 138.549c.32-6.842 2.868-9.503 9.127-9.526 17.79-.066 35.582-.06 53.373-.002 5.761.02 9.375 3.33 9.259 8.16-.112 4.64-3.624 7.776-9.131 7.795-17.79.064-35.582-.01-53.373.048-4.51.015-7.703-1.673-9.256-6.475z"/><path fill="#E47E7E" d="M91.606 142.813c-8.116 3.808-15.257 1.258-17.84-6.04-2.25-6.363 1.523-13.366 8.227-15.265 5.02-1.421 10.419.84 13.265 5.557 3.112 5.156 2.002 10.306-3.652 15.748z"/><path fill="#E37D7D" d="M63.98 149.259c1.646 6.075-.211 10.119-4.907 11.413-4.167 1.149-8.609-1.308-9.697-5.538-.976-3.794.195-7.024 3.626-8.92 4.267-2.356 7.965-1.263 10.979 3.045z"/><path fill="#2D2727" d="M264.967 136.996c-.462 4.53-2.8 7.675-6.8 7.67-2.677-.003-6.46-1.693-7.713-3.825-1.244-2.117-.905-6.39.531-8.493 1.303-1.91 5.074-3.098 7.656-2.942 3.796.228 5.916 3.285 6.326 7.59z"/><path fill="#8769AF" d="M443.215 283.581c-2.937-4.933-2.912-9.475.5-13.72 3.037-3.78 6.976-5.653 11.86-4.411 4.721 1.2 7.775 4.317 9.002 9.034 1.287 4.948-1.33 10.392-6.082 13.02-5.043 2.789-9.88 1.624-15.28-3.923z"/><path fill="#8768AF" d="M242.831 267.928c6.173-4.545 13.135-2.877 13.683 3.368.24 2.726-1.463 6.913-3.618 8.2-2.174 1.296-6.646.822-8.96-.667-3.819-2.454-3.736-6.68-1.105-10.9z"/><path fill="#D6966B" d="M246.309 68.174c-5.037 4.84-9.337 5.883-14.148 3.65-4.434-2.056-7.427-6.997-7.056-11.648.39-4.893 4.226-9.464 9.087-10.695 5.116-1.296 9.208.574 12.264 4.579 3.42 4.482 3.301 9.196-.147 14.114z"/><path fill="#BA3131" d="M118.316 429.82c3.34 4.725 3.548 9.316.445 13.733-2.763 3.934-6.664 6.09-11.599 5.171-5-.93-8.287-4.058-9.685-8.951-1.412-4.942 1.076-10.407 5.795-13.152 4.874-2.833 9.75-1.873 15.044 3.2zm22.407-9.098c5.941-4.682 11.314-4.783 15.977-.562 4.526 4.096 5.523 10.007 2.504 14.844-3.244 5.198-9.34 7.292-14.7 4.936-7.236-3.18-10.35-12.666-3.78-19.218z"/><path fill="#D44B4B" d="M96.964 325.826c-1.753 11.338-8.494 18.225-18.28 19.082-8.983.787-17.71-4.838-20.531-13.418-2.642-8.038-.879-15.243 5.232-20.974 6.101-5.722 13.445-7.199 21.24-3.894 8.153 3.457 12.145 9.948 12.34 19.204z"/><path fill="#7954A2" d="M382.638 406.436c-8.159 19.665-26.067 29.584-45.804 25.654-18.84-3.752-31.74-20.132-31.825-40.456-.032-7.49-.09-14.982.018-22.47.2-13.704 10.393-23.953 24.093-24.129a1223.27 1223.27 0 0 1 31.956.004c11.712.156 22.048 7.876 23.197 19.395 1.378 13.814 2.336 27.885-1.635 42.002m-60.755-37.695c-2.544 9.824 4.754 18.184 13.873 15.891 5.15-1.295 8.958-5.895 9.197-11.11.248-5.415-3.366-10.408-8.672-11.98-5.514-1.634-10.3.558-14.398 7.2m37.928 28.169c-2.207-3.21-5.19-4.597-9.01-3.54-4.233 1.17-6.675 5.648-5.48 9.759 1.22 4.197 5.64 6.719 9.739 5.558 4.71-1.334 6.59-5.418 4.75-11.777z"/><path fill="#262627" d="M322.021 368.376c3.96-6.276 8.746-8.468 14.26-6.834 5.306 1.572 8.92 6.565 8.672 11.98-.239 5.215-4.047 9.815-9.197 11.11-9.119 2.293-16.417-6.067-13.735-16.256z"/><path fill="#29272B" d="M359.985 397.26c1.665 6.01-.216 10.094-4.925 11.428-4.099 1.16-8.518-1.361-9.739-5.558-1.195-4.111 1.247-8.589 5.48-9.76 3.82-1.056 6.803.331 9.184 3.89z"/></svg>
